<svg xmlns="http://www.w3.org/2000/svg" viewBox="0 0 934 243"><defs><style>.cls-1{fill:#fc5e5e;}.cls-2{fill:#39afff;}.cls-3{fill:#47e520;}.cls-4{fill:#fff;}.cls-5{fill:none;stroke:#000;stroke-miterlimit:10;stroke-width:5px;}</style></defs><title>overview</title><g id="Layer_2" data-name="Layer 2"><g id="Layer_1-2" data-name="Layer 1"><rect class="cls-1" x="589" width="345" height="243"/><rect class="cls-2" y="37" width="228" height="62"/><rect class="cls-2" x="475" y="38" width="228" height="62"/><rect class="cls-3" y="147" width="228" height="62"/><rect class="cls-3" x="475" y="148" width="228" height="62"/><path class="cls-4" d="M91.08,69.21a9.86,9.86,0,0,1-3,6.7,9.71,9.71,0,0,1-6.93,2.51,9.87,9.87,0,0,1-7.74-3.26,12.54,12.54,0,0,1-2.91-8.67,13.86,13.86,0,0,1,1.25-5.94,10.78,10.78,0,0,1,15.9-4,8.33,8.33,0,0,1,3.23,5.78h-4A5.24,5.24,0,0,0,85,59.14,5.87,5.87,0,0,0,81.29,58a5.94,5.94,0,0,0-3.86,1.28,6.93,6.93,0,0,0-2.24,3.15,12.26,12.26,0,0,0-.66,4.08,12.39,12.39,0,0,0,.38,3.14,9.71,9.71,0,0,0,1.15,2.7,5.64,5.64,0,0,0,2.1,2,6.26,6.26,0,0,0,3.09.74q5.09,0,5.82-5.82Z"/><path class="cls-4" d="M97.93,55.09V77.88H94.31V55.09Z"/><path class="cls-4" d="M105.64,55v3.58H102V55Zm0,6.37V77.88H102V61.36Z"/><path class="cls-4" d="M124.39,72.73a6.91,6.91,0,0,1-2.64,4.19,7.93,7.93,0,0,1-4.85,1.5A7.62,7.62,0,0,1,111,76a8.86,8.86,0,0,1-2.19-6.19,9.25,9.25,0,0,1,2.26-6.4,7.36,7.36,0,0,1,5.74-2.53,7.13,7.13,0,0,1,5.73,2.48,10.1,10.1,0,0,1,2.11,6.77v.38H112.42a5.93,5.93,0,0,0,1.25,3.86,4.14,4.14,0,0,0,3.3,1.36,3.93,3.93,0,0,0,2.45-.72,4.74,4.74,0,0,0,1.49-2.29ZM121,68.08a5.19,5.19,0,0,0-1.3-3.28,4.19,4.19,0,0,0-5.82,0,5.62,5.62,0,0,0-1.36,3.33Z"/><path class="cls-4" d="M130.89,61.36V63.8a6.29,6.29,0,0,1,5.47-2.88,5.4,5.4,0,0,1,4.21,1.54A6.35,6.35,0,0,1,142,66.87v11h-3.65v-9.6a11.71,11.71,0,0,0-.1-1.65,5,5,0,0,0-.4-1.33,2,2,0,0,0-1-1,3.86,3.86,0,0,0-1.73-.34q-4,0-4,5v8.9h-3.65V61.36Z"/><path class="cls-4" d="M153.83,61.36V64H150.5v8.7q0,.77,0,1.07a2.29,2.29,0,0,0,.19.67.87.87,0,0,0,.56.5,3.76,3.76,0,0,0,1.1.13,12.81,12.81,0,0,0,1.44-.06v2.88a21.36,21.36,0,0,1-2.46.13,8.67,8.67,0,0,1-1.68-.14,7,7,0,0,1-1.2-.34,1.76,1.76,0,0,1-.8-.66q-.32-.46-.5-.77a2.92,2.92,0,0,1-.26-1.07q-.08-.77-.08-1.17V64H144.1V61.36h2.75v-5h3.65v5Z"/><path class="cls-4" d="M66.62,166.09h9.89a8.9,8.9,0,0,1,5.81,1.74,6.33,6.33,0,0,1,2.13,5.2,6.83,6.83,0,0,1-2,5.17,7.49,7.49,0,0,1-5.41,1.9H70.62v8.77h-4Zm4,3.33v7.46h5.57q4.35,0,4.35-3.74t-4.7-3.71Z"/><path class="cls-4" d="M91.17,166.09v22.78H87.55V166.09Z"/><path class="cls-4" d="M95,177.45q.58-5.6,7.23-5.6a8.86,8.86,0,0,1,4.94,1.22,4.21,4.21,0,0,1,1.84,3.78v8.38a1.82,1.82,0,0,0,.18,1,.78.78,0,0,0,.69.26,5.87,5.87,0,0,0,.83-.06v2.56a10.1,10.1,0,0,1-2.37.35q-2.34,0-2.69-2a8.05,8.05,0,0,1-5.79,2A5.92,5.92,0,0,1,95.78,188a4.56,4.56,0,0,1-1.5-3.6,5.14,5.14,0,0,1,.16-1.31A6.32,6.32,0,0,1,94.8,182a2.41,2.41,0,0,1,.67-.83l.77-.64a3.06,3.06,0,0,1,1-.48l1-.34a8.16,8.16,0,0,1,1.17-.24l1.1-.18,1.14-.14q2-.26,2.66-.43a1.63,1.63,0,0,0,1-.53,2,2,0,0,0,.22-1.18q0-2.5-3.39-2.5a4.16,4.16,0,0,0-2.62.67,3.4,3.4,0,0,0-1.06,2.27Zm10.5,3.14a5.72,5.72,0,0,1-1,.4,5.52,5.52,0,0,1-.88.22l-1.06.14-.94.13q-.67.1-1.06.18a8.1,8.1,0,0,0-.94.27,2.51,2.51,0,0,0-.86.46,2.33,2.33,0,0,0-.53.74,2.52,2.52,0,0,0-.22,1.1,2.22,2.22,0,0,0,.78,1.82,3.37,3.37,0,0,0,2.19.64,5.07,5.07,0,0,0,3.74-1.31,4.08,4.08,0,0,0,.74-2.85Z"/><path class="cls-4" d="M127.49,172.36l-6.11,16.19q-.1.22-.35.94l-.35,1q-.1.26-.37.9a7.27,7.27,0,0,1-.43.9l-.48.77a3.1,3.1,0,0,1-.59.74l-.67.56a2.61,2.61,0,0,1-.82.48,7.94,7.94,0,0,1-.94.26,5.47,5.47,0,0,1-1.14.11,20.48,20.48,0,0,1-2.53-.19v-3.07a10.44,10.44,0,0,0,1.92.22,2.12,2.12,0,0,0,.7-.11,1.44,1.44,0,0,0,.58-.38q.26-.27.45-.51a2.73,2.73,0,0,0,.37-.67l.27-.67q.1-.24.26-.75t.19-.64l-6.34-16h4l4.42,12.16,4.16-12.16Z"/><path class="cls-4" d="M144.32,183.73a6.91,6.91,0,0,1-2.64,4.19,7.93,7.93,0,0,1-4.85,1.5A7.62,7.62,0,0,1,130.9,187a8.86,8.86,0,0,1-2.19-6.19,9.25,9.25,0,0,1,2.26-6.4,7.36,7.36,0,0,1,5.74-2.53,7.13,7.13,0,0,1,5.73,2.48,10.1,10.1,0,0,1,2.11,6.77v.38H132.35a5.93,5.93,0,0,0,1.25,3.86,4.14,4.14,0,0,0,3.3,1.36,3.93,3.93,0,0,0,2.45-.72,4.74,4.74,0,0,0,1.49-2.29Zm-3.42-4.64a5.19,5.19,0,0,0-1.3-3.28,4.19,4.19,0,0,0-5.82,0,5.62,5.62,0,0,0-1.36,3.33Z"/><path class="cls-4" d="M156.67,172v3.49q-1-.1-1.28-.1-4.77,0-4.77,6.18v7.26H147V172.36h3.42v3.3A5.8,5.8,0,0,1,156,172Z"/><path class="cls-4" d="M494.62,169.09h9.89a8.9,8.9,0,0,1,5.81,1.74,6.33,6.33,0,0,1,2.13,5.2,6.83,6.83,0,0,1-2,5.17,7.49,7.49,0,0,1-5.41,1.9h-6.43v8.77h-4Zm4,3.33v7.46h5.57q4.35,0,4.35-3.74t-4.7-3.71Z"/><path class="cls-4" d="M519.17,169.09v22.78h-3.62V169.09Z"/><path class="cls-4" d="M523,180.45q.58-5.6,7.23-5.6a8.86,8.86,0,0,1,4.94,1.22,4.21,4.21,0,0,1,1.84,3.78v8.38a1.82,1.82,0,0,0,.18,1,.78.78,0,0,0,.69.26,5.87,5.87,0,0,0,.83-.06v2.56a10.1,10.1,0,0,1-2.37.35q-2.34,0-2.69-2a8.05,8.05,0,0,1-5.79,2,5.92,5.92,0,0,1-4.06-1.33,4.56,4.56,0,0,1-1.5-3.6,5.14,5.14,0,0,1,.16-1.31,6.32,6.32,0,0,1,.37-1.06,2.41,2.41,0,0,1,.67-.83l.77-.64a3.06,3.06,0,0,1,1-.48l1-.34a8.16,8.16,0,0,1,1.17-.24l1.1-.18,1.14-.14q2-.26,2.66-.43a1.63,1.63,0,0,0,1-.53,2,2,0,0,0,.22-1.18q0-2.5-3.39-2.5a4.16,4.16,0,0,0-2.62.67,3.4,3.4,0,0,0-1.06,2.27Zm10.5,3.14a5.72,5.72,0,0,1-1,.4,5.52,5.52,0,0,1-.88.22l-1.06.14-.94.13q-.67.1-1.06.18a8.1,8.1,0,0,0-.94.27,2.51,2.51,0,0,0-.86.46,2.33,2.33,0,0,0-.53.74,2.52,2.52,0,0,0-.22,1.1,2.22,2.22,0,0,0,.78,1.82,3.37,3.37,0,0,0,2.19.64,5.07,5.07,0,0,0,3.74-1.31,4.08,4.08,0,0,0,.74-2.85Z"/><path class="cls-4" d="M555.49,175.36l-6.11,16.19q-.1.22-.35.94l-.35,1q-.1.26-.37.9a7.27,7.27,0,0,1-.43.9l-.48.77a3.1,3.1,0,0,1-.59.74l-.67.56a2.61,2.61,0,0,1-.82.48,7.94,7.94,0,0,1-.94.26,5.47,5.47,0,0,1-1.14.11,20.48,20.48,0,0,1-2.53-.19v-3.07a10.44,10.44,0,0,0,1.92.22,2.12,2.12,0,0,0,.7-.11,1.44,1.44,0,0,0,.58-.38q.26-.27.45-.51a2.73,2.73,0,0,0,.37-.67l.27-.67q.1-.24.26-.75t.19-.64l-6.34-16h4l4.42,12.16,4.16-12.16Z"/><path class="cls-4" d="M572.32,186.73a6.91,6.91,0,0,1-2.64,4.19,7.93,7.93,0,0,1-4.85,1.5A7.62,7.62,0,0,1,558.9,190a8.86,8.86,0,0,1-2.19-6.19,9.25,9.25,0,0,1,2.26-6.4,7.36,7.36,0,0,1,5.74-2.53,7.13,7.13,0,0,1,5.73,2.48,10.1,10.1,0,0,1,2.11,6.77v.38H560.35a5.93,5.93,0,0,0,1.25,3.86,4.14,4.14,0,0,0,3.3,1.36,3.93,3.93,0,0,0,2.45-.72,4.74,4.74,0,0,0,1.49-2.29Zm-3.42-4.64a5.19,5.19,0,0,0-1.3-3.28,4.19,4.19,0,0,0-5.82,0,5.62,5.62,0,0,0-1.36,3.33Z"/><path class="cls-4" d="M584.67,175v3.49q-1-.1-1.28-.1-4.77,0-4.77,6.18v7.26H575V175.36h3.42v3.3A5.8,5.8,0,0,1,584,175Z"/><path class="cls-4" d="M612.35,175.81h-3.81q-.35-4-5-4a5.31,5.31,0,0,0-3.2.85,2.73,2.73,0,0,0-1.15,2.32,2,2,0,0,0,.85,1.89,16.81,16.81,0,0,0,3.76,1.25q.77.22,1.18.32a24.33,24.33,0,0,1,5.18,1.73,5.4,5.4,0,0,1,3,5.09,7,7,0,0,1-.51,2.72,5.89,5.89,0,0,1-1.38,2,7.53,7.53,0,0,1-2,1.36,10.52,10.52,0,0,1-2.46.78,14.37,14.37,0,0,1-2.66.24,11.05,11.05,0,0,1-6.94-2,7.13,7.13,0,0,1-2.66-6h3.94a4.28,4.28,0,0,0,1.63,3.7,7,7,0,0,0,4.26,1.2,6,6,0,0,0,3.6-.94,3.08,3.08,0,0,0,1.3-2.64,2.41,2.41,0,0,0-.69-1.78,4.06,4.06,0,0,0-1.49-1q-.8-.29-2.78-.8L604,182a31.11,31.11,0,0,1-5.6-1.79,5.11,5.11,0,0,1-3-4.45v-.45a5.86,5.86,0,0,1,2.29-4.85,9.61,9.61,0,0,1,6.13-1.81,9.79,9.79,0,0,1,6,1.76A6.65,6.65,0,0,1,612.35,175.81Z"/><path class="cls-4" d="M631,186.73a6.91,6.91,0,0,1-2.64,4.19,7.93,7.93,0,0,1-4.85,1.5,7.62,7.62,0,0,1-5.94-2.42,8.86,8.86,0,0,1-2.19-6.19,9.25,9.25,0,0,1,2.26-6.4,7.36,7.36,0,0,1,5.74-2.53,7.13,7.13,0,0,1,5.73,2.48,10.1,10.1,0,0,1,2.11,6.77v.38H619a5.93,5.93,0,0,0,1.25,3.86,4.14,4.14,0,0,0,3.3,1.36A3.93,3.93,0,0,0,626,189a4.74,4.74,0,0,0,1.49-2.29Zm-3.42-4.64a5.19,5.19,0,0,0-1.3-3.28,4.19,4.19,0,0,0-5.82,0,5.62,5.62,0,0,0-1.36,3.33Z"/><path class="cls-4" d="M643.36,175v3.49q-1-.1-1.28-.1-4.77,0-4.77,6.18v7.26h-3.62V175.36h3.42v3.3a5.8,5.8,0,0,1,5.54-3.68Z"/><path class="cls-4" d="M643.61,175.36h4l4.22,12.7,4.06-12.7h3.78l-5.92,16.54h-4.1Z"/><path class="cls-4" d="M676.67,186.73a6.91,6.91,0,0,1-2.64,4.19,7.93,7.93,0,0,1-4.85,1.5,7.62,7.62,0,0,1-5.94-2.42,8.86,8.86,0,0,1-2.19-6.19,9.25,9.25,0,0,1,2.26-6.4,7.36,7.36,0,0,1,5.74-2.53,7.13,7.13,0,0,1,5.73,2.48,10.1,10.1,0,0,1,2.11,6.77v.38H664.7a5.93,5.93,0,0,0,1.25,3.86,4.14,4.14,0,0,0,3.3,1.36,3.93,3.93,0,0,0,2.45-.72,4.74,4.74,0,0,0,1.49-2.29Zm-3.42-4.64a5.19,5.19,0,0,0-1.3-3.28,4.19,4.19,0,0,0-5.82,0,5.62,5.62,0,0,0-1.36,3.33Z"/><path class="cls-4" d="M689,175v3.49q-1-.1-1.28-.1-4.77,0-4.77,6.18v7.26h-3.62V175.36h3.42v3.3a5.8,5.8,0,0,1,5.54-3.68Z"/><path class="cls-4" d="M519.93,73.63a9.86,9.86,0,0,1-3,6.7A9.71,9.71,0,0,1,510,82.85a9.87,9.87,0,0,1-7.74-3.26,12.54,12.54,0,0,1-2.91-8.67A13.86,13.86,0,0,1,500.61,65a10.78,10.78,0,0,1,15.9-4,8.33,8.33,0,0,1,3.23,5.78h-4a5.24,5.24,0,0,0-1.92-3.22,5.87,5.87,0,0,0-3.71-1.17,5.94,5.94,0,0,0-3.86,1.28A6.93,6.93,0,0,0,504,66.83a12.26,12.26,0,0,0-.66,4.08,12.39,12.39,0,0,0,.38,3.14,9.71,9.71,0,0,0,1.15,2.7,5.64,5.64,0,0,0,2.1,2,6.26,6.26,0,0,0,3.09.74q5.09,0,5.82-5.82Z"/><path class="cls-4" d="M526.78,59.52V82.3h-3.62V59.52Z"/><path class="cls-4" d="M534.49,59.42V63h-3.65V59.42Zm0,6.37V82.3h-3.65V65.79Z"/><path class="cls-4" d="M553.25,77.15a6.91,6.91,0,0,1-2.64,4.19,7.93,7.93,0,0,1-4.85,1.5,7.62,7.62,0,0,1-5.94-2.42,8.86,8.86,0,0,1-2.19-6.19,9.25,9.25,0,0,1,2.26-6.4,7.36,7.36,0,0,1,5.74-2.53,7.13,7.13,0,0,1,5.73,2.48,10.1,10.1,0,0,1,2.11,6.77v.38H541.28a5.93,5.93,0,0,0,1.25,3.86,4.14,4.14,0,0,0,3.3,1.36,3.93,3.93,0,0,0,2.45-.72,4.74,4.74,0,0,0,1.49-2.29Zm-3.42-4.64a5.19,5.19,0,0,0-1.3-3.28,4.19,4.19,0,0,0-5.82,0,5.62,5.62,0,0,0-1.36,3.33Z"/><path class="cls-4" d="M559.74,65.79v2.43a6.29,6.29,0,0,1,5.47-2.88,5.4,5.4,0,0,1,4.21,1.54,6.35,6.35,0,0,1,1.39,4.42v11h-3.65V72.7a11.71,11.71,0,0,0-.1-1.65,5,5,0,0,0-.4-1.33,2,2,0,0,0-1-1,3.86,3.86,0,0,0-1.73-.34q-4,0-4,5v8.9h-3.65V65.79Z"/><path class="cls-4" d="M582.68,65.79v2.66h-3.33v8.7q0,.77,0,1.07a2.29,2.29,0,0,0,.19.67.87.87,0,0,0,.56.5,3.76,3.76,0,0,0,1.1.13,12.81,12.81,0,0,0,1.44-.06v2.88a21.36,21.36,0,0,1-2.46.13,8.67,8.67,0,0,1-1.68-.14,7,7,0,0,1-1.2-.34,1.76,1.76,0,0,1-.8-.66q-.32-.46-.5-.77a2.92,2.92,0,0,1-.26-1.07q-.08-.77-.08-1.17V68.45H573V65.79h2.75v-5h3.65v5Z"/><path class="cls-4" d="M611,66.24h-3.81q-.35-4-5-4a5.31,5.31,0,0,0-3.2.85,2.73,2.73,0,0,0-1.15,2.32,2,2,0,0,0,.85,1.89,16.81,16.81,0,0,0,3.76,1.25q.77.22,1.18.32a24.33,24.33,0,0,1,5.18,1.73,5.4,5.4,0,0,1,3,5.09,7,7,0,0,1-.51,2.72,5.89,5.89,0,0,1-1.38,2,7.53,7.53,0,0,1-2,1.36,10.52,10.52,0,0,1-2.46.78,14.37,14.37,0,0,1-2.66.24,11.05,11.05,0,0,1-6.94-2,7.13,7.13,0,0,1-2.66-6h3.94a4.28,4.28,0,0,0,1.63,3.7,7,7,0,0,0,4.26,1.2,6,6,0,0,0,3.6-.94,3.08,3.08,0,0,0,1.3-2.64,2.41,2.41,0,0,0-.69-1.78,4.06,4.06,0,0,0-1.49-1q-.8-.29-2.78-.8l-.35-.1a31.11,31.11,0,0,1-5.6-1.79,5.11,5.11,0,0,1-3-4.45v-.45a5.86,5.86,0,0,1,2.29-4.85,9.61,9.61,0,0,1,6.13-1.81,9.79,9.79,0,0,1,6,1.76A6.65,6.65,0,0,1,611,66.24Z"/><path class="cls-4" d="M629.69,77.15a6.91,6.91,0,0,1-2.64,4.19,7.93,7.93,0,0,1-4.85,1.5,7.62,7.62,0,0,1-5.94-2.42,8.86,8.86,0,0,1-2.19-6.19,9.25,9.25,0,0,1,2.26-6.4,7.36,7.36,0,0,1,5.74-2.53,7.13,7.13,0,0,1,5.73,2.48,10.1,10.1,0,0,1,2.11,6.77v.38H617.72A5.93,5.93,0,0,0,619,78.8a4.14,4.14,0,0,0,3.3,1.36,3.93,3.93,0,0,0,2.45-.72,4.74,4.74,0,0,0,1.49-2.29Zm-3.42-4.64a5.19,5.19,0,0,0-1.3-3.28,4.19,4.19,0,0,0-5.82,0,5.62,5.62,0,0,0-1.36,3.33Z"/><path class="cls-4" d="M642,65.47V69q-1-.1-1.28-.1Q636,68.86,636,75V82.3h-3.62V65.79h3.42v3.3a5.8,5.8,0,0,1,5.54-3.68Z"/><path class="cls-4" d="M642.3,65.79h4l4.22,12.7,4.06-12.7h3.78l-5.92,16.54h-4.1Z"/><path class="cls-4" d="M675.36,77.15a6.91,6.91,0,0,1-2.64,4.19,7.93,7.93,0,0,1-4.85,1.5,7.62,7.62,0,0,1-5.94-2.42,8.86,8.86,0,0,1-2.19-6.19,9.25,9.25,0,0,1,2.26-6.4,7.36,7.36,0,0,1,5.74-2.53,7.13,7.13,0,0,1,5.73,2.48,10.1,10.1,0,0,1,2.11,6.77v.38H663.39a5.93,5.93,0,0,0,1.25,3.86,4.14,4.14,0,0,0,3.3,1.36,3.93,3.93,0,0,0,2.45-.72,4.74,4.74,0,0,0,1.49-2.29Zm-3.42-4.64a5.19,5.19,0,0,0-1.3-3.28,4.19,4.19,0,0,0-5.82,0,5.62,5.62,0,0,0-1.36,3.33Z"/><path class="cls-4" d="M687.71,65.47V69q-1-.1-1.28-.1-4.77,0-4.77,6.18V82.3H678V65.79h3.42v3.3A5.8,5.8,0,0,1,687,65.41Z"/><path class="cls-4" d="M766.11,111.15h-5.61q-.52-5.89-7.3-5.89a7.81,7.81,0,0,0-4.71,1.25,4,4,0,0,0-1.7,3.42,3,3,0,0,0,1.25,2.78,24.72,24.72,0,0,0,5.54,1.84q1.13.33,1.74.47a35.82,35.82,0,0,1,7.63,2.54,8,8,0,0,1,4.48,7.49,10.23,10.23,0,0,1-.75,4,8.68,8.68,0,0,1-2,3,11.09,11.09,0,0,1-3,2,15.47,15.47,0,0,1-3.63,1.15,21.17,21.17,0,0,1-3.91.35q-6.31,0-10.22-3T740,123.69h5.79a6.31,6.31,0,0,0,2.4,5.44,10.32,10.32,0,0,0,6.27,1.77,8.86,8.86,0,0,0,5.3-1.39,4.53,4.53,0,0,0,1.91-3.89,3.54,3.54,0,0,0-1-2.62,6,6,0,0,0-2.19-1.44q-1.18-.42-4.1-1.18l-.52-.14a45.9,45.9,0,0,1-8.25-2.64,7.52,7.52,0,0,1-4.38-6.55v-.66a8.63,8.63,0,0,1,3.37-7.14q3.37-2.66,9-2.66a14.41,14.41,0,0,1,8.9,2.59Q765.92,105.78,766.11,111.15Z"/><path class="cls-4" d="M793.58,127.22a10.17,10.17,0,0,1-3.89,6.17,11.67,11.67,0,0,1-7.14,2.21,11.21,11.21,0,0,1-8.74-3.56,13,13,0,0,1-3.23-9.12,13.62,13.62,0,0,1,3.32-9.42,10.84,10.84,0,0,1,8.46-3.72,10.5,10.5,0,0,1,8.43,3.65q3.11,3.65,3.11,10V124H776a8.74,8.74,0,0,0,1.84,5.68,6.09,6.09,0,0,0,4.85,2,5.78,5.78,0,0,0,3.6-1.06,7,7,0,0,0,2.19-3.37Zm-5-6.83a7.64,7.64,0,0,0-1.91-4.83,6.17,6.17,0,0,0-8.58-.07,8.27,8.27,0,0,0-2,4.9Z"/><path class="cls-4" d="M811.77,110v5.14q-1.41-.14-1.88-.14-7,0-7,9.09v10.7h-5.32V110.5h5v4.85q2.59-5.42,8.15-5.42Z"/><path class="cls-4" d="M812.14,110.5H818l6.22,18.7,6-18.7h5.56L827,134.85h-6Z"/><path class="cls-4" d="M860.81,127.22a10.18,10.18,0,0,1-3.89,6.17,11.67,11.67,0,0,1-7.14,2.21,11.21,11.21,0,0,1-8.74-3.56,13,13,0,0,1-3.23-9.12,13.62,13.62,0,0,1,3.32-9.42,10.83,10.83,0,0,1,8.46-3.72,10.5,10.5,0,0,1,8.43,3.65q3.11,3.65,3.11,10V124h-18a8.74,8.74,0,0,0,1.84,5.68,6.09,6.09,0,0,0,4.85,2,5.79,5.79,0,0,0,3.61-1.06,7,7,0,0,0,2.19-3.37Zm-5-6.83a7.65,7.65,0,0,0-1.91-4.83,6.18,6.18,0,0,0-8.58-.07,8.28,8.28,0,0,0-2,4.9Z"/><path class="cls-4" d="M879,110v5.14q-1.41-.14-1.88-.14-7,0-7,9.09v10.7h-5.32V110.5h5v4.85q2.59-5.42,8.15-5.42Z"/><line class="cls-5" x1="228" y1="69" x2="475" y2="69"/><line class="cls-5" x1="228.5" y1="178.5" x2="475.5" y2="178.5"/><path d="M300.49,111.34v28h-5.07l-13-20.59v20.59h-4.64v-28h5.15L295.78,132V111.34Z"/><path d="M323.76,133a8.49,8.49,0,0,1-3.24,5.15,9.73,9.73,0,0,1-6,1.85,9.35,9.35,0,0,1-7.29-3,10.88,10.88,0,0,1-2.69-7.6,11.36,11.36,0,0,1,2.77-7.86,9,9,0,0,1,7.05-3.1,8.76,8.76,0,0,1,7,3q2.59,3,2.59,8.31v.47h-15a7.29,7.29,0,0,0,1.53,4.74,5.08,5.08,0,0,0,4,1.67,4.82,4.82,0,0,0,3-.88,5.82,5.82,0,0,0,1.83-2.81Zm-4.21-5.7a6.37,6.37,0,0,0-1.59-4,5.15,5.15,0,0,0-7.15-.06,6.9,6.9,0,0,0-1.67,4.09Z"/><path d="M337.36,119v3.26h-4.09V133q0,.94,0,1.32a2.82,2.82,0,0,0,.24.83,1.06,1.06,0,0,0,.69.61,4.62,4.62,0,0,0,1.36.16,15.74,15.74,0,0,0,1.77-.08v3.54a26.2,26.2,0,0,1-3,.16,10.61,10.61,0,0,1-2.06-.18,8.53,8.53,0,0,1-1.47-.41,2.15,2.15,0,0,1-1-.81q-.39-.57-.61-.94a3.58,3.58,0,0,1-.31-1.32q-.1-.94-.1-1.43V122.31h-3.38V119h3.38V113h4.48V119Z"/><path d="M338.65,119h4.76l4,15.21L351.23,119h4.52l3.73,15.21L363.69,119h4.56l-6.41,20.28h-4.6l-3.81-15.05-3.77,15.05h-4.72Z"/><path d="M380.51,118.45a9.69,9.69,0,0,1,7.39,2.91,12.58,12.58,0,0,1,0,15.68,9.67,9.67,0,0,1-7.41,2.91A10,10,0,0,1,373,137a12.38,12.38,0,0,1,0-15.68A10,10,0,0,1,380.51,118.45Zm4.11,5.44a5.55,5.55,0,0,0-8.39,0,8.24,8.24,0,0,0-1.53,5.27,8.37,8.37,0,0,0,1.53,5.35,5.12,5.12,0,0,0,4.24,1.93,5,5,0,0,0,4.15-1.95,8.54,8.54,0,0,0,1.51-5.36A8.23,8.23,0,0,0,384.62,123.9Z"/><path d="M405.9,118.65v4.28q-1.18-.12-1.57-.12-5.86,0-5.86,7.58v8.92H394V119h4.21v4q2.16-4.52,6.8-4.52Z"/><path d="M426.25,119l-7.78,7.43L427,139.32H421.5l-6.17-9.79-2.67,2.52v7.27h-4.36v-28h4.36V127.1l8.1-8.06Z"/></g></g></svg>